<!-- Exported by Character Map UWP -->
<svg height="100%" viewBox="0 64 985 960" width="100%"
  xmlns="http://www.w3.org/2000/svg"
  xmlns:xlink="http://www.w3.org/1999/xlink">
  <path d="M984.5,960.5C984.5,969.167 982.833,977.417 979.5,985.25C976.167,993.083 971.583,999.833 965.75,1005.5C959.917,1011.17 953.083,1015.67 945.25,1019C937.417,1022.33 929.167,1024 920.5,1024L743.5,1024C734.833,1024 726.583,1022.33 718.75,1019C710.917,1015.67 704.083,1011.17 698.25,1005.5C692.417,999.833 687.833,993.083 684.5,985.25C681.167,977.417 679.5,969.167 679.5,960.5C679.5,954.167 680.583,947.583 682.75,940.75C684.917,933.917 687.583,927.25 690.75,920.75C693.917,914.25 697.333,907.917 701,901.75C704.667,895.583 707.833,889.667 710.5,884L576,749.5L576,928C576,942 573.583,954.917 568.75,966.75C563.917,978.583 557.25,988.75 548.75,997.25C540.25,1005.75 530.167,1012.33 518.5,1017C506.833,1021.67 494,1024 480,1024C466,1024 453.083,1021.67 441.25,1017C429.417,1012.33 419.25,1005.75 410.75,997.25C402.25,988.75 395.667,978.583 391,966.75C386.333,954.917 384,942 384,928C384,907.667 383.917,887.417 383.75,867.25C383.583,847.083 383.5,826.833 383.5,806.5C381.833,812.833 378.833,818.167 374.5,822.5L234,963.5C224.667,972.833 213.75,979.667 201.25,984C188.75,988.333 176.167,990.5 163.5,990.5C149.167,990.5 135.917,988.083 123.75,983.25C111.583,978.417 101.083,971.667 92.25,963C83.4167,954.333 76.5,944 71.5,932C66.5,920 64,906.833 64,892.5C64,879.5 66.4167,866.833 71.25,854.5C76.0833,842.167 83.1667,831.333 92.5,822L192,722.5L192,539.5C181.333,542.5 170.667,544 160,544C146,544 133.083,541.667 121.25,537C109.417,532.333 99.25,525.75 90.75,517.25C82.25,508.75 75.6667,498.583 71,486.75C66.3333,474.917 64,462 64,448L64,338C64,324.333 66.6667,311.5 72,299.5C77.3333,287.5 84.8333,277 94.5,268L9.5,182.5C3.16667,176.167 0,168.667 0,160C0,151.333 3.16667,143.833 9.5,137.5C15.8333,131.167 23.3333,128 32,128C40.6667,128 48.1667,131.167 54.5,137.5L157.5,240L336.5,195C341.833,193.667 347.083,192.833 352.25,192.5C357.417,192.167 362.667,192 368,192L384,192L384,189.5C384,172.167 387.5,155.917 394.5,140.75C401.5,125.583 410.833,112.333 422.5,101C434.167,89.6667 447.75,80.6667 463.25,74C478.75,67.3334 495,64.0001 512,64C529,64.0001 545.25,67.3334 560.75,74C576.25,80.6667 589.833,89.6667 601.5,101C613.167,112.333 622.5,125.583 629.5,140.75C636.5,155.917 640,172.167 640,189.5C640,206.833 637.083,223.083 631.25,238.25C625.417,253.417 616.667,267.333 605,280L671.5,582C672.167,585 672.667,588.167 673,591.5C673.333,594.833 673.5,598 673.5,601C673.5,611 672,620.833 669,630.5C666,640.167 661.75,649.083 656.25,657.25C650.75,665.417 644.083,672.583 636.25,678.75C628.417,684.917 619.667,689.667 610,693L740.5,823L775,754.5C780.667,743.5 788.583,735.333 798.75,730C808.917,724.667 820,722 832,722C844,722 855.167,724.667 865.5,730C875.833,735.333 883.833,743.5 889.5,754.5L977.5,931.5C982.167,940.833 984.5,950.5 984.5,960.5ZM448,192C448,201 449.667,209.417 453,217.25C456.333,225.083 460.833,231.833 466.5,237.5C472.167,243.167 478.917,247.667 486.75,251C494.583,254.333 503,256 512,256C521,256 529.333,254.333 537,251C544.667,247.667 551.417,243.083 557.25,237.25C563.083,231.417 567.667,224.667 571,217C574.333,209.333 576,201 576,192C576,183.333 574.333,175.083 571,167.25C567.667,159.417 563.083,152.583 557.25,146.75C551.417,140.917 544.583,136.333 536.75,133C528.917,129.667 520.667,128 512,128C503,128 494.667,129.667 487,133C479.333,136.333 472.583,140.917 466.75,146.75C460.917,152.583 456.333,159.333 453,167C449.667,174.667 448,183 448,192ZM320,333C328.667,333 336.167,336.083 342.5,342.25C348.833,348.417 352,355.833 352,364.5C352,370.167 351,374.917 349,378.75C347,382.583 344.333,385.833 341,388.5C337.667,391.167 333.833,393.25 329.5,394.75C325.167,396.25 320.667,397.667 316,399L448,531L448,467C448,458 451.25,450.5 457.75,444.5C464.25,438.5 471.833,435.5 480.5,435.5C488.5,435.5 495.333,438.083 501,443.25C506.667,448.417 510.167,454.833 511.5,462.5C515.167,485.833 519.5,508.917 524.5,531.75C529.5,554.583 534.667,577.5 540,600.5C541,605.5 542,610.167 543,614.5C544,618.833 545.417,622.5 547.25,625.5C549.083,628.5 551.75,630.917 555.25,632.75C558.75,634.583 563.667,635.5 570,635.5C580.667,635.5 589.833,632.75 597.5,627.25C605.167,621.75 609,613.167 609,601.5C609,600.5 609,599.417 609,598.25C609,597.083 608.833,596 608.5,595L547,315C541.333,317 535.583,318.333 529.75,319C523.917,319.667 518,320 512,320C489.333,320 468,314.25 448,302.75C428,291.25 412.333,275.667 401,256L360,256C357.333,256 351,257.083 341,259.25C331,261.417 319,264.25 305,267.75C291,271.25 276,275 260,279C244,283 228.75,286.917 214.25,290.75C199.75,294.583 186.833,298 175.5,301C164.167,304 156.333,306 152,307C145,308.667 139.25,312.417 134.75,318.25C130.25,324.083 128,330.667 128,338L128,448C128,469.333 138.667,480 160,480C181.333,480 192,469.333 192,448L192,390.5C192,383.167 194.25,376.583 198.75,370.75C203.25,364.917 209,361.167 216,359.5C220.667,358.167 228,356.083 238,353.25C248,350.417 258.5,347.5 269.5,344.5C280.5,341.5 290.75,338.833 300.25,336.5C309.75,334.167 316.333,333 320,333ZM512,743.5C511,741.833 509,737.917 506,731.75C503,725.583 499.333,718.25 495,709.75C490.667,701.25 486.167,692.25 481.5,682.75C476.833,673.25 472.5,664.417 468.5,656.25C464.5,648.083 461.083,641.25 458.25,635.75C455.417,630.25 453.833,627.333 453.5,627C447.833,620 442.417,613.833 437.25,608.5C432.083,603.167 426.917,598 421.75,593C416.583,588 411.167,583 405.5,578C399.833,573 393.833,567.333 387.5,561L256,429L256,736C256,744.667 252.833,752.167 246.5,758.5L138,867.5C131.667,873.833 128.5,882.167 128.5,892.5C128.5,903.167 131.667,911.667 138,918C144.333,924.333 152.833,927.5 163.5,927.5C168.167,927.5 172.667,926.75 177,925.25C181.333,923.75 185.167,921.333 188.5,918L320,786.5L320,672C320,663 323.167,655.417 329.5,649.25C335.833,643.083 343.5,640 352.5,640C358.167,640 363.583,641.583 368.75,644.75C373.917,647.917 377.833,652.167 380.5,657.5L444.5,785.5C446.833,790.167 448,795 448,800L448,928C448,949.333 458.667,960 480,960C501.333,960 512,949.333 512,928ZM832,783L743.5,960L920.5,960Z" fill="#000000" fill-opacity="1">
  </path>
</svg>