<!-- Exported by Character Map UWP -->
<svg height="100%" viewBox="58 -217 244 244" width="100%" xmlns="http://www.w3.org/2000/svg" xmlns:xlink="http://www.w3.org/1999/xlink">
  <path d="M175.699,26.8125C156.199,26.8125 139.136,23.7754 124.511,17.7012C109.885,11.627 97.6781,3.23112 87.8896,-7.48633C78.1012,-18.2038 70.7695,-30.6429 65.8945,-44.8037C61.0195,-58.9645 58.582,-74.1315 58.582,-90.3047C58.582,-106.478 61.0195,-121.645 65.8945,-135.806C70.7695,-149.966 78.1012,-162.406 87.8896,-173.123C97.6781,-183.84 109.885,-192.237 124.511,-198.312C139.136,-204.386 156.199,-207.424 175.699,-207.424C195.199,-207.424 212.281,-204.386 226.945,-198.312C241.609,-192.237 253.817,-183.84 263.567,-173.123C273.318,-162.406 280.631,-149.966 285.506,-135.806C290.381,-121.645 292.818,-106.478 292.818,-90.3047C292.818,-74.1315 290.381,-58.9645 285.506,-44.8037C280.631,-30.6429 273.318,-18.2038 263.567,-7.48633C253.817,3.23112 241.609,11.627 226.945,17.7012C212.281,23.7754 195.199,26.8125 175.699,26.8125Z" fill="#FFB02E" fill-opacity="1">
  </path>
  <path d="M76.625,-207.375C71.7083,-207.375 67.4792,-205.625 63.9375,-202.125C60.3958,-198.625 58.625,-194.375 58.625,-189.375L58.625,-90.25L184.75,-207.375Z" fill="#BB1D80" fill-opacity="1">
  </path>
  <path d="M58.625,-158.625L58.625,-184.125L82,-207.375L107.375,-207.375Z" fill="#5092FF" fill-opacity="1">
  </path>
  <path d="M58.625,-113.5L58.625,-139L127,-207.375L152.5,-207.375Z" fill="#5092FF" fill-opacity="1">
  </path>
  <path d="M288.375,-182.625C288.375,-176.042 286.771,-170.208 283.563,-165.125C280.354,-160.042 276.167,-156.042 271,-153.125C265.833,-150.208 260.375,-148.75 254.625,-148.75C252.708,-148.75 251.104,-149.417 249.813,-150.75C248.521,-152.083 247.875,-153.708 247.875,-155.625C247.875,-157.458 248.521,-159.042 249.813,-160.375C251.104,-161.708 252.708,-162.375 254.625,-162.375C259.875,-162.375 264.563,-164.271 268.688,-168.063C272.813,-171.854 274.875,-176.708 274.875,-182.625C274.875,-184.458 275.542,-186.042 276.875,-187.375C278.208,-188.708 279.792,-189.375 281.625,-189.375C283.458,-189.375 285.042,-188.708 286.375,-187.375C287.708,-186.042 288.375,-184.458 288.375,-182.625Z" fill="#F70A8D" fill-opacity="1">
  </path>
  <path d="M126.25,-11.5C126.25,-4.91667 124.646,0.916667 121.438,6C118.229,11.0833 114.042,15.0833 108.875,18C103.708,20.9167 98.25,22.375 92.5,22.375C90.5833,22.375 88.9792,21.7083 87.6875,20.375C86.3958,19.0417 85.75,17.4167 85.75,15.5C85.75,13.6667 86.3958,12.0833 87.6875,10.75C88.9792,9.41667 90.5833,8.75 92.5,8.75C97.75,8.75 102.438,6.85417 106.563,3.0625C110.688,-0.729167 112.75,-5.58333 112.75,-11.5C112.75,-13.3333 113.417,-14.9167 114.75,-16.25C116.083,-17.5833 117.667,-18.25 119.5,-18.25C121.333,-18.25 122.917,-17.5833 124.25,-16.25C125.583,-14.9167 126.25,-13.3333 126.25,-11.5Z" fill="#F70A8D" fill-opacity="1">
  </path>
  <path d="M121.5,-106.625C121.083,-104.125 119.833,-102.188 117.75,-100.813C115.667,-99.4375 113.417,-99 111,-99.5C108.583,-99.9167 106.667,-101.167 105.25,-103.25C103.833,-105.333 103.375,-107.583 103.875,-110C104.292,-112.083 105.063,-114.563 106.188,-117.438C107.313,-120.313 109.125,-123.083 111.625,-125.75C114.208,-128.583 117.458,-130.896 121.375,-132.688C125.292,-134.479 129.917,-135.375 135.25,-135.375C140.583,-135.375 145.229,-134.458 149.188,-132.625C153.146,-130.792 156.417,-128.458 159,-125.625C161.417,-122.875 163.208,-120.062 164.375,-117.188C165.542,-114.312 166.292,-111.875 166.625,-109.875C167.042,-107.375 166.542,-105.104 165.125,-103.063C163.708,-101.021 161.75,-99.7917 159.25,-99.375C156.833,-98.9583 154.604,-99.4792 152.563,-100.938C150.521,-102.396 149.292,-104.333 148.875,-106.75C148.708,-107.667 148.375,-108.75 147.875,-110C147.375,-111.25 146.625,-112.417 145.625,-113.5C144.792,-114.417 143.563,-115.271 141.938,-116.063C140.313,-116.854 138.083,-117.25 135.25,-117.25C132.25,-117.25 129.979,-116.854 128.438,-116.063C126.896,-115.271 125.708,-114.458 124.875,-113.625C123.958,-112.542 123.229,-111.375 122.688,-110.125C122.146,-108.875 121.75,-107.708 121.5,-106.625Z" fill="#402A32" fill-opacity="1">
  </path>
  <path d="M211.625,-106.625C211.125,-104.125 209.854,-102.188 207.813,-100.813C205.771,-99.4375 203.542,-99 201.125,-99.5C198.625,-99.9167 196.688,-101.167 195.313,-103.25C193.938,-105.333 193.5,-107.583 194,-110C194.333,-112.083 195.083,-114.563 196.25,-117.438C197.417,-120.313 199.208,-123.083 201.625,-125.75C204.292,-128.583 207.583,-130.896 211.5,-132.688C215.417,-134.479 220.042,-135.375 225.375,-135.375C230.708,-135.375 235.354,-134.458 239.313,-132.625C243.271,-130.792 246.542,-128.458 249.125,-125.625C251.542,-122.875 253.333,-120.062 254.5,-117.188C255.667,-114.312 256.417,-111.875 256.75,-109.875C257.167,-107.375 256.667,-105.104 255.25,-103.063C253.833,-101.021 251.875,-99.7917 249.375,-99.375C246.958,-98.9583 244.729,-99.4792 242.688,-100.938C240.646,-102.396 239.417,-104.333 239,-106.75C238.833,-107.667 238.5,-108.75 238,-110C237.5,-111.25 236.75,-112.417 235.75,-113.5C234.917,-114.417 233.688,-115.271 232.063,-116.063C230.438,-116.854 228.208,-117.25 225.375,-117.25C222.375,-117.25 220.083,-116.854 218.5,-116.063C216.917,-115.271 215.75,-114.458 215,-113.625C214,-112.542 213.25,-111.375 212.75,-110.125C212.25,-108.875 211.875,-107.708 211.625,-106.625Z" fill="#402A32" fill-opacity="1">
  </path>
  <path d="M256.873,-207.412C256.873,-208.656 256.64,-209.821 256.175,-210.907C255.709,-211.994 255.063,-212.949 254.235,-213.773C253.408,-214.598 252.451,-215.244 251.363,-215.713C250.276,-216.182 249.111,-216.416 247.869,-216.416C246.626,-216.416 245.46,-216.182 244.373,-215.713C243.286,-215.244 242.328,-214.598 241.501,-213.773C240.673,-212.949 240.027,-211.994 239.562,-210.907C239.096,-209.821 238.863,-208.656 238.863,-207.412C238.863,-206.169 239.096,-205.002 239.562,-203.912C240.027,-202.822 240.673,-201.865 241.501,-201.04C242.328,-200.215 243.286,-199.57 244.373,-199.105C245.46,-198.641 246.626,-198.408 247.869,-198.408C249.111,-198.408 250.276,-198.641 251.363,-199.105C252.451,-199.57 253.408,-200.215 254.235,-201.04C255.063,-201.865 255.709,-202.822 256.175,-203.912C256.64,-205.002 256.873,-206.169 256.873,-207.412Z" fill="#00A6ED" fill-opacity="1">
  </path>
  <path d="M112.713,-45.252C111.469,-45.252 110.304,-45.4847 109.218,-45.9502C108.131,-46.4157 107.176,-47.0622 106.352,-47.8896C105.527,-48.7171 104.881,-49.6745 104.412,-50.7617C103.943,-51.849 103.709,-53.0137 103.709,-54.2559C103.709,-55.4993 103.943,-56.6647 104.412,-57.752C104.881,-58.8392 105.527,-59.7965 106.352,-60.624C107.176,-61.4515 108.131,-62.098 109.218,-62.5635C110.304,-63.029 111.469,-63.2617 112.713,-63.2617C113.956,-63.2617 115.123,-63.029 116.213,-62.5635C117.303,-62.098 118.26,-61.4515 119.085,-60.624C119.91,-59.7965 120.555,-58.8392 121.02,-57.752C121.484,-56.6647 121.717,-55.4993 121.717,-54.2559C121.717,-53.0137 121.484,-51.849 121.02,-50.7617C120.555,-49.6745 119.91,-48.7171 119.085,-47.8896C118.26,-47.0622 117.303,-46.4157 116.213,-45.9502C115.123,-45.4847 113.956,-45.252 112.713,-45.252Z" fill="#00A6ED" fill-opacity="1">
  </path>
  <path d="M265.838,26.873C264.594,26.873 263.429,26.6403 262.343,26.1748C261.256,25.7093 260.301,25.0628 259.477,24.2354C258.652,23.4079 258.006,22.4505 257.537,21.3633C257.068,20.276 256.834,19.1113 256.834,17.8691C256.834,16.6257 257.068,15.4603 257.537,14.373C258.006,13.2858 258.652,12.3285 259.477,11.501C260.301,10.6735 261.256,10.027 262.343,9.56152C263.429,9.09603 264.594,8.86328 265.838,8.86328C267.081,8.86328 268.248,9.09603 269.338,9.56152C270.428,10.027 271.385,10.6735 272.21,11.501C273.035,12.3285 273.68,13.2858 274.145,14.373C274.609,15.4603 274.842,16.6257 274.842,17.8691C274.842,19.1113 274.609,20.276 274.145,21.3633C273.68,22.4505 273.035,23.4079 272.21,24.2354C271.385,25.0628 270.428,25.7093 269.338,26.1748C268.248,26.6403 267.081,26.873 265.838,26.873Z" fill="#00A6ED" fill-opacity="1">
  </path>
  <path d="M268.75,-117.25L270.375,-117.25C276.208,-117.25 281.5,-115.833 286.25,-113C291,-110.167 294.792,-106.375 297.625,-101.625C300.458,-96.875 301.875,-91.5833 301.875,-85.75L301.875,-82.5C301.875,-74.8333 300,-67.8333 296.25,-61.5C292.5,-55.1667 287.458,-50.125 281.125,-46.375C274.792,-42.625 267.792,-40.75 260.125,-40.75L202.75,-40.75C200.917,-40.75 199.333,-41.3958 198,-42.6875C196.667,-43.9792 196,-45.5833 196,-47.5C196,-49.3333 196.667,-50.9167 198,-52.25C199.333,-53.5833 200.917,-54.25 202.75,-54.25L260.125,-54.25C267.958,-54.25 274.625,-57 280.125,-62.5C285.625,-68 288.375,-74.6667 288.375,-82.5L288.375,-85.75C288.375,-90.75 286.625,-95 283.125,-98.5C279.625,-102 275.375,-103.75 270.375,-103.75L268.75,-103.75C264.25,-103.75 260.396,-102.146 257.188,-98.9375C253.979,-95.7292 252.375,-91.875 252.375,-87.375L252.375,-86.25C252.375,-83.5833 253.292,-81.3333 255.125,-79.5C256.958,-77.6667 259.208,-76.75 261.875,-76.75C264.542,-76.75 265.875,-78.0833 265.875,-80.75L265.875,-83.5C265.875,-85.3333 266.542,-86.9167 267.875,-88.25C269.208,-89.5833 270.792,-90.25 272.625,-90.25C274.458,-90.25 276.042,-89.5833 277.375,-88.25C278.708,-86.9167 279.375,-85.3333 279.375,-83.5L279.375,-80.75C279.375,-75.9167 277.667,-71.7917 274.25,-68.375C270.833,-64.9583 266.708,-63.25 261.875,-63.25C255.458,-63.25 250.021,-65.4792 245.563,-69.9375C241.104,-74.3958 238.875,-79.8333 238.875,-86.25L238.875,-87.375C238.875,-92.875 240.208,-97.8958 242.875,-102.438C245.542,-106.979 249.146,-110.583 253.688,-113.25C258.229,-115.917 263.25,-117.25 268.75,-117.25Z" fill="#00A6ED" fill-opacity="1">
  </path>
  <path d="M190.875,-82C197.125,-82 202.458,-79.7708 206.875,-75.3125C211.292,-70.8542 213.5,-65.5 213.5,-59.25C213.5,-54.1667 211.958,-49.625 208.875,-45.625C211.958,-41.5417 213.5,-36.9583 213.5,-31.875C213.5,-25.625 211.292,-20.2708 206.875,-15.8125C202.458,-11.3542 197.125,-9.125 190.875,-9.125C188.375,-9.125 186.229,-10.0208 184.438,-11.8125C182.646,-13.6042 181.75,-15.7083 181.75,-18.125C181.75,-20.625 182.646,-22.75 184.438,-24.5C186.229,-26.25 188.375,-27.125 190.875,-27.125C192.125,-27.125 193.208,-27.5833 194.125,-28.5C195.042,-29.4167 195.5,-30.5417 195.5,-31.875C195.5,-33.2083 195.042,-34.3125 194.125,-35.1875C193.208,-36.0625 192.125,-36.5 190.875,-36.5C188.375,-36.5 186.229,-37.3958 184.438,-39.1875C182.646,-40.9792 181.75,-43.125 181.75,-45.625C181.75,-45.625 181.75,-45.625 181.75,-45.625C181.75,-45.625 181.75,-45.625 181.75,-45.625C181.75,-48.0417 182.646,-50.1458 184.438,-51.9375C186.229,-53.7292 188.375,-54.625 190.875,-54.625C192.125,-54.625 193.208,-55.0625 194.125,-55.9375C195.042,-56.8125 195.5,-57.9167 195.5,-59.25C195.5,-60.5833 195.042,-61.7083 194.125,-62.625C193.208,-63.5417 192.125,-64 190.875,-64C188.375,-64 186.229,-64.875 184.438,-66.625C182.646,-68.375 181.75,-70.5 181.75,-73C181.75,-75.4167 182.646,-77.5208 184.438,-79.3125C186.229,-81.1042 188.375,-82 190.875,-82Z" fill="#402A32" fill-opacity="1">
  </path>
</svg>