<!-- Exported by Character Map UWP -->
<svg height="100%" viewBox="-47 148 1118 1119" width="100%" xmlns="http://www.w3.org/2000/svg" xmlns:xlink="http://www.w3.org/1999/xlink">
  <path d="M652,657L462.5,467.5L592,467.5L832,707.5L592,947L462.5,947L652,757L233,757L233,657ZM512,228C468,228 425.583,233.75 384.75,245.25C343.917,256.75 305.75,272.917 270.25,293.75C234.75,314.583 202.417,339.583 173.25,368.75C144.083,397.917 119.083,430.25 98.25,465.75C77.4167,501.25 61.3333,539.417 50,580.25C38.6667,621.083 33,663.5 33,707.5C33,751.5 38.6667,793.917 50,834.75C61.3333,875.583 77.4167,913.667 98.25,949C119.083,984.333 144.083,1016.67 173.25,1046C202.417,1075.33 234.75,1100.33 270.25,1121C305.75,1141.67 343.917,1157.75 384.75,1169.25C425.583,1180.75 468,1186.5 512,1186.5C556,1186.5 598.417,1180.75 639.25,1169.25C680.083,1157.75 718.25,1141.67 753.75,1121C789.25,1100.33 821.583,1075.33 850.75,1046C879.917,1016.67 904.917,984.333 925.75,949C946.583,913.667 962.75,875.583 974.25,834.75C985.75,793.917 991.5,751.5 991.5,707.5C991.5,663.5 985.75,621.083 974.25,580.25C962.75,539.417 946.583,501.25 925.75,465.75C904.917,430.25 879.917,397.917 850.75,368.75C821.583,339.583 789.25,314.583 753.75,293.75C718.25,272.917 680.083,256.75 639.25,245.25C598.417,233.75 556,228 512,228ZM1071,707.5C1071,758.833 1064.33,808.25 1051,855.75C1037.67,903.25 1018.83,947.75 994.5,989.25C970.167,1030.75 941,1068.5 907,1102.5C873,1136.5 835.333,1165.67 794,1190C752.667,1214.33 708.167,1233.17 660.5,1246.5C612.833,1259.83 563.333,1266.5 512,1266.5C460.667,1266.5 411.167,1259.83 363.5,1246.5C315.833,1233.17 271.333,1214.33 230,1190C188.667,1165.67 151,1136.5 117,1102.5C83,1068.5 53.8333,1030.75 29.5,989.25C5.16666,947.75 -13.6667,903.25 -27,855.75C-40.3333,808.25 -47,758.833 -47,707.5C-47,656.167 -40.3333,606.667 -27,559C-13.6667,511.333 5.16666,466.75 29.5,425.25C53.8333,383.75 83,346 117,312C151,278 188.667,248.833 230,224.5C271.333,200.167 315.833,181.333 363.5,168C411.167,154.667 460.667,148 512,148C563.333,148 612.833,154.667 660.5,168C708.167,181.333 752.667,200.167 794,224.5C835.333,248.833 873,278 907,312C941,346 970.167,383.75 994.5,425.25C1018.83,466.75 1037.67,511.333 1051,559C1064.33,606.667 1071,656.167 1071,707.5Z" fill="#000000" fill-opacity="1">
  </path>
</svg>